<?xml version="1.0" encoding="UTF-8"?>
<svg width="16px" height="16px" viewBox="0 0 16 16" version="1.1" xmlns="http://www.w3.org/2000/svg" xmlns:xlink="http://www.w3.org/1999/xlink">
    <title>edit</title>
    <g id="Symbols" stroke="none" stroke-width="1" fill="none" fill-rule="evenodd">
        <g id="icon/edit" transform="translate(-8.000000, -8.000000)" fill="#000000" fill-rule="nonzero">
            <g id="edit" transform="translate(8.000000, 8.000000)">
                <path d="M14.8735985,1.12597647 C13.5626927,-0.185956044 12.5781498,0.0104247072 12.5781498,0.0104247072 L7.0763456,5.51272241 L0.918179478,11.6705318 L0,16 L4.32998896,15.0817382 L10.4881551,8.92574712 L15.9899592,3.42344942 C15.9890502,3.42344942 16.1863224,2.43881816 14.8735985,1.12597647 Z M4.07271689,14.5616928 L2.59635702,14.8799024 C2.4545392,14.6135155 2.28272145,14.3471287 1.96908589,14.0325558 C1.65454124,13.7179829 1.38817828,13.5479681 1.12181532,13.4043192 L1.43999633,11.9287361 L1.86726797,11.5023353 C1.86726797,11.5023353 2.6699932,11.5187004 3.57726361,12.4260522 C4.48362494,13.3315856 4.50089762,14.1362012 4.50089762,14.1362012 L4.07271689,14.5616928 Z"></path>
            </g>
        </g>
    </g>
</svg>