<svg width="22px" height="13px" viewBox="0 0 22 13" version="1.1" xmlns="http://www.w3.org/2000/svg" xmlns:xlink="http://www.w3.org/1999/xlink">
    <title>eye</title>
    <path d="M11,0.44 C3.7829,0.44 0,5.7552 0,6.6 C0,7.4426 3.7829,12.76 11,12.76 C18.216,12.76 22,7.4426 22,6.6 C22,5.7552 18.216,0.44 11,0.44 Z M11,11.3377 C8.2995,11.3377 6.1105,9.2169 6.1105,6.6 C6.1105,3.9831 8.2995,1.8601 11,1.8601 C13.7005,1.8601 15.8884,3.9831 15.8884,6.6 C15.8884,9.2169 13.7005,11.3377 11,11.3377 Z M11,6.6 C10.5523,6.1083 11.7293,4.2306 11,4.2306 C9.6492,4.2306 8.5547,5.2921 8.5547,6.6 C8.5547,7.9079 9.6492,8.9694 11,8.9694 C12.3497,8.9694 13.4453,7.9079 13.4453,6.6 C13.4453,5.9983 11.3806,7.0169 11,6.6 Z"></path>
</svg>