<?xml version="1.0" encoding="UTF-8"?>
<svg width="20px" height="21px" viewBox="0 0 20 21" version="1.1" xmlns="http://www.w3.org/2000/svg" xmlns:xlink="http://www.w3.org/1999/xlink">
    <title>filters</title>
    <g id="Symbols" stroke="none" stroke-width="1" fill="none" fill-rule="evenodd">
        <g id="icon/filters" transform="translate(-6.000000, -5.000000)" fill="#000000">
            <path d="M11.5,19 C12.8961849,19 14.1014298,19.817511 14.6631686,20.9999667 L26,21 L26,24 L14.6626913,24.0010375 C14.1007474,25.1829519 12.8957896,26 11.5,26 C10.1042104,26 8.89925265,25.1829519 8.33730867,24.0010375 L6,24 L6,21 L8.33683139,20.9999667 C8.89857016,19.817511 10.1038151,19 11.5,19 Z M11.5,21 C10.6715729,21 10,21.6715729 10,22.5 C10,23.3284271 10.6715729,24 11.5,24 C12.3284271,24 13,23.3284271 13,22.5 C13,21.6715729 12.3284271,21 11.5,21 Z M20.5,12 C21.8961849,12 23.1014298,12.817511 23.6631686,13.9999667 L26,14 L26,17 L23.6626913,17.0010375 C23.1007474,18.1829519 21.8957896,19 20.5,19 C19.1042104,19 17.8992526,18.1829519 17.3373087,17.0010375 L6,17 L6,14 L17.3368314,13.9999667 C17.8985702,12.817511 19.1038151,12 20.5,12 Z M20.5,14 C19.6715729,14 19,14.6715729 19,15.5 C19,16.3284271 19.6715729,17 20.5,17 C21.3284271,17 22,16.3284271 22,15.5 C22,14.6715729 21.3284271,14 20.5,14 Z M15.5,5 C16.8961849,5 18.1014298,5.817511 18.6631686,6.99996673 L26,7 L26,10 L18.6626913,10.0010375 C18.1007474,11.1829519 16.8957896,12 15.5,12 C14.1042104,12 12.8992526,11.1829519 12.3373087,10.0010375 L6,10 L6,7 L12.3368314,6.99996673 C12.8985702,5.817511 14.1038151,5 15.5,5 Z M15.5,7 C14.6715729,7 14,7.67157288 14,8.5 C14,9.32842712 14.6715729,10 15.5,10 C16.3284271,10 17,9.32842712 17,8.5 C17,7.67157288 16.3284271,7 15.5,7 Z" id="filters"></path>
        </g>
    </g>
</svg>