<?xml version="1.0" encoding="UTF-8"?>
<svg width="22px" height="20px" viewBox="0 0 22 20" version="1.1" xmlns="http://www.w3.org/2000/svg" xmlns:xlink="http://www.w3.org/1999/xlink">
    <title>hide_password</title>
    <g id="Symbols" stroke="none" stroke-width="1" fill="none" fill-rule="evenodd">
        <g id="icon/hide-password" transform="translate(-5.000000, -6.000000)" fill="#000000">
            <g id="eye-with-line" transform="translate(5.000000, 6.000000)">
                <path d="M20.3736328,0.332481888 C19.9451538,-0.110769607 19.2479187,-0.110838804 18.8182312,0.332343381 L1.62636716,18.0636481 C1.19667966,18.5067611 1.19667966,19.225712 1.62650147,19.667648 C2.05618897,20.1108301 2.75221562,20.1107609 3.18190312,19.6675788 L20.3735656,1.93648171 C20.8033874,1.49336872 20.8033874,0.775594876 20.3736328,0.332481888 Z M3.41923824,13.9672763 L6.23449706,11.0650247 C6.15795895,10.7211967 6.11015625,10.3669832 6.11015625,10.0000303 C6.11015625,7.30147223 8.29941409,5.11249395 11,5.11249395 C11.3147461,5.11249395 11.6208984,5.14821989 11.9189941,5.20513222 L13.2413574,3.84200584 C12.5334473,3.72361172 11.7911621,3.64800555 11,3.64800555 C3.78339841,3.64800555 0,9.12931327 0,10.0000303 C0,10.4803924 1.1631103,12.3717925 3.41923824,13.9672763 Z M18.5845215,6.03499989 L15.7663086,8.94043637 C15.8420411,9.28246413 15.8887695,9.63529289 15.8887695,10.0000303 C15.8887695,12.6985883 13.7005859,14.8853509 11,14.8853509 C10.687671,14.8853509 10.3842041,14.849348 10.0882569,14.793405 L8.7637451,16.1587469 C9.4703125,16.2765873 10.2109863,16.352055 11,16.352055 C18.2166016,16.352055 22,10.8685317 22,10.0000303 C22,9.51869879 20.8382325,7.62937572 18.5845215,6.03499989 Z" id="hide_password"></path>
            </g>
        </g>
    </g>
</svg>