<?xml version="1.0" encoding="UTF-8"?>
<svg width="20px" height="20px" viewBox="0 0 20 20" version="1.1" xmlns="http://www.w3.org/2000/svg" xmlns:xlink="http://www.w3.org/1999/xlink">
    <title>info</title>
    <g id="Symbols" stroke="none" stroke-width="1" fill="none" fill-rule="evenodd">
        <g id="icon/info" transform="translate(-6.000000, -6.000000)" fill="#000000">
            <path d="M16,6.4 C10.697,6.4 6.399,10.698 6.399,16 C6.399,21.303 10.697,25.601 16,25.601 C21.301,25.601 25.6,21.303 25.6,16 C25.6,10.698 21.301,6.4 16,6.4 Z M16.896,9.866 C17.832,9.866 18.107,10.409 18.107,11.03 C18.107,11.805 17.487,12.522 16.428,12.522 C15.542,12.522 15.12,12.077 15.146,11.34 C15.146,10.719 15.665,9.866 16.896,9.866 Z M14.498,21.75 C13.858,21.75 13.391,21.361 13.838,19.656 L14.571,16.631 C14.698,16.147 14.719,15.953 14.571,15.953 C14.38,15.953 13.549,16.287 13.059,16.617 L12.74,16.094 C14.295,14.795 16.083,14.033 16.848,14.033 C17.488,14.033 17.594,14.789 17.275,15.953 L16.435,19.133 C16.286,19.695 16.35,19.889 16.499,19.889 C16.691,19.889 17.319,19.657 17.937,19.17 L18.299,19.656 C16.786,21.168 15.137,21.75 14.498,21.75 Z" id="info"></path>
        </g>
    </g>
</svg>