<?xml version="1.0" encoding="UTF-8"?>
<svg width="20px" height="19px" viewBox="0 0 20 19" version="1.1" xmlns="http://www.w3.org/2000/svg" xmlns:xlink="http://www.w3.org/1999/xlink">
    <title>list</title>
    <g id="Symbols" stroke="none" stroke-width="1" fill="none" fill-rule="evenodd">
        <g id="icon/list" transform="translate(-6.000000, -7.000000)" fill="#000000">
            <path d="M8.5,21 C9.88071187,21 11,22.1192881 11,23.5 C11,24.8807119 9.88071187,26 8.5,26 C7.11928813,26 6,24.8807119 6,23.5 C6,22.1192881 7.11928813,21 8.5,21 Z M26,22 L26,25 L13,25 L13,22 L26,22 Z M8.5,14 C9.88071187,14 11,15.1192881 11,16.5 C11,17.8807119 9.88071187,19 8.5,19 C7.11928813,19 6,17.8807119 6,16.5 C6,15.1192881 7.11928813,14 8.5,14 Z M26,15 L26,18 L13,18 L13,15 L26,15 Z M8.5,7 C9.88071187,7 11,8.11928813 11,9.5 C11,10.8807119 9.88071187,12 8.5,12 C7.11928813,12 6,10.8807119 6,9.5 C6,8.11928813 7.11928813,7 8.5,7 Z M26,8 L26,11 L13,11 L13,8 L26,8 Z" id="list"></path>
        </g>
    </g>
</svg>