<?xml version="1.0" encoding="UTF-8"?>
<svg width="18px" height="21px" viewBox="0 0 18 21" version="1.1" xmlns="http://www.w3.org/2000/svg" xmlns:xlink="http://www.w3.org/1999/xlink">
    <title>profile</title>
    <defs>
        <rect id="path-1" x="0" y="0" width="17.599999" height="20.7999988"></rect>
    </defs>
    <g id="Symbols" stroke="none" stroke-width="1" fill="none" fill-rule="evenodd">
        <g id="icon/profile" transform="translate(-7.000000, -6.000000)">
            <g id="Group-2" transform="translate(7.000000, 6.000000)">
                <g id="profile">
                    <mask id="mask-2" fill="white">
                        <use xlink:href="#path-1"></use>
                    </mask>
                    <g id="Mask"></g>
                    <path d="M8.79999948,1.5999999 C11.8927939,1.5999999 14.3999991,4.10720516 14.3999991,7.19999957 C14.3999991,9.47135661 13.0477441,11.4268776 11.1043831,12.3054134 C14.8469268,13.3176605 17.599999,16.7373224 17.599999,20.7999988 C17.599999,25.6601043 13.660105,29.5999982 8.79999948,29.5999982 C3.93989397,29.5999982 0,25.6601043 0,20.7999988 C0,16.7373224 2.75307215,13.3176605 6.49536966,12.3048598 C4.55225482,11.4268776 3.19999981,9.47135661 3.19999981,7.19999957 C3.19999981,4.10720516 5.70720506,1.5999999 8.79999948,1.5999999 Z" id="Combined-Shape" fill="#FFFFFF" mask="url(#mask-2)"></path>
                </g>
            </g>
        </g>
    </g>
</svg>