<?xml version="1.0" encoding="UTF-8"?>
<svg width="16px" height="20px" viewBox="0 0 16 20" version="1.1" xmlns="http://www.w3.org/2000/svg" xmlns:xlink="http://www.w3.org/1999/xlink">
    <title>trash</title>
    <g id="Symbols" stroke="none" stroke-width="1" fill="none" fill-rule="evenodd">
        <g id="icon/trash" transform="translate(-8.000000, -6.000000)" fill="#000000" fill-rule="nonzero">
            <path d="M8.989,13.113 L10.09,24.021 C10.151,24.482 12.377,25.998 15.6,26 C18.825,25.998 21.051,24.482 21.111,24.021 L22.213,13.113 C20.529,14.055 18.012,14.5 15.6,14.5 C13.19,14.5 10.672,14.055 8.989,13.113 Z M18.768,7.51 L17.909,6.559 C17.577,6.086 17.217,6 16.516,6 L14.685,6 C13.985,6 13.624,6.086 13.293,6.559 L12.434,7.51 C9.864,7.959 8,9.15 8,10.029 L8,10.199 C8,11.746 11.403,13 15.6,13 C19.798,13 23.201,11.746 23.201,10.199 L23.201,10.029 C23.201,9.15 21.338,7.959 18.768,7.51 Z M17.67,10.34 L16.6,9 L14.6,9 L13.532,10.34 L11.832,10.34 C11.832,10.34 13.694,8.119 13.943,7.818 C14.133,7.588 14.327,7.5 14.579,7.5 L16.622,7.5 C16.875,7.5 17.069,7.588 17.259,7.818 C17.507,8.119 19.37,10.34 19.37,10.34 L17.67,10.34 Z" id="trash"></path>
        </g>
    </g>
</svg>