<?xml version="1.0" encoding="UTF-8"?>
<svg width="19px" height="20px" viewBox="0 0 19 20" version="1.1" xmlns="http://www.w3.org/2000/svg" xmlns:xlink="http://www.w3.org/1999/xlink">
    <title>Combined Shape</title>
    <g id="_Mobile" stroke="none" stroke-width="1" fill="none" fill-rule="evenodd" opacity="0.5">
        <g id="Shop---Product-Listing" transform="translate(-312.000000, -186.000000)" fill="#000000" fill-rule="nonzero">
            <g id="Group" transform="translate(312.000000, 186.000000)">
                <path d="M9.5,0.8 C14.6298757,0.8 18.7884615,4.9189803 18.7884615,10 C18.7884615,15.0810197 14.6298757,19.2 9.5,19.2 C4.37012434,19.2 0.211538462,15.0810197 0.211538462,10 C0.211538462,4.9189803 4.37012434,0.8 9.5,0.8 Z M9.5,2.8 C5.47043226,2.8 2.21153846,6.02785672 2.21153846,10 C2.21153846,13.9721433 5.47043226,17.2 9.5,17.2 C13.5295677,17.2 16.7884615,13.9721433 16.7884615,10 C16.7884615,6.02785672 13.5295677,2.8 9.5,2.8 Z M13.0063133,5.58074543 L14.3321386,6.91931896 L11.0609327,10.221 L14.3763931,13.5041261 L13.0378196,14.8299513 L9.73593269,11.559 L6.45301248,14.8742059 L5.12718727,13.5356323 L8.39793269,10.233 L5.08293269,6.95082521 L6.42150623,5.625 L9.72293269,8.895 L13.0063133,5.58074543 Z" id="Combined-Shape"></path>
            </g>
        </g>
    </g>
</svg>