<?xml version="1.0" encoding="UTF-8"?>
<svg width="48px" height="48px" viewBox="0 0 48 48" version="1.1" xmlns="http://www.w3.org/2000/svg" xmlns:xlink="http://www.w3.org/1999/xlink">
    <title>social/flickr</title>
    <g id="social/flickr" stroke="none" stroke-width="1" fill="none" fill-rule="evenodd">
        <path d="M0,24 C0,10.7451654 10.7451654,0 24,0 C37.2548346,0 48,10.7451654 48,24 C48,37.2548346 37.2548346,48 24,48 C10.7451654,48 0,37.2548346 0,24 Z M38.2953814,23.7986028 C38.2953814,20.3766299 35.4692061,17.6 31.9765595,17.6 C28.4805385,17.6 25.6526759,20.3766299 25.6526759,23.7986028 C25.6526759,27.2222305 28.4805385,29.9988604 31.9765595,29.9988604 C35.4692061,29.9988604 38.2953814,27.2222305 38.2953814,23.7986028 Z M22.2410182,23.7986028 C22.2410182,20.3766299 19.4131557,17.6 15.9171346,17.6 C12.4261754,17.6 9.6,20.3766299 9.6,23.7986028 C9.6,27.2222305 12.4261754,29.9988604 15.9171346,29.9988604 C19.4131557,29.9988604 22.2410182,27.2222305 22.2410182,23.7986028 Z" id="Combined-Shape" fill="#000000"></path>
    </g>
</svg>