<?xml version="1.0" encoding="UTF-8"?>
<svg width="39px" height="26px" viewBox="0 0 39 26" version="1.1" xmlns="http://www.w3.org/2000/svg" xmlns:xlink="http://www.w3.org/1999/xlink">
    <title>mail</title>
    <g id="Desktop" stroke="none" stroke-width="1" fill="none" fill-rule="evenodd">
        <g id="My-Profile---Landing-Page-v2" transform="translate(-851.000000, -561.000000)" fill="#FFFFFF" fill-rule="nonzero">
            <g id="mail-3" transform="translate(851.000000, 561.000000)">
                <g id="mail-2">
                    <g id="mail">
                        <path d="M0.000712077815,7.6290663 C0.00759141055,7.2733967 0.0798440546,6.91340901 0.831784512,7.2951634 C2.02774411,7.89960784 16.6658586,15.347451 17.3985185,15.7197386 C18.1311785,16.0920261 18.6440404,16.1359477 19.3508418,16.1359477 C20.0576431,16.1359477 20.5705051,16.0920261 21.303165,15.7197386 C22.0358249,15.347451 36.7579798,7.90169935 37.9539394,7.2972549 C38.7078079,6.91550052 38.7802649,7.2754882 38.7871658,7.6311578 L38.7878823,23.0065359 C38.7878823,23.8849673 37.5682155,25.0980392 36.6329966,25.0980392 L36.6329966,25.0980392 L2.15488215,25.0980392 C1.2196633,25.0980392 -1.76779293e-06,23.8849673 -1.76779293e-06,23.0065359 L-1.76779293e-06,23.0065359 Z M37.5811448,-1.33226763e-14 C39.5140741,-1.33226763e-14 38.5185185,2.13960784 37.4647811,2.6896732 C36.4131987,3.23764706 21.8461953,10.8339869 21.303165,11.1163399 C20.7601347,11.3986928 20.0576431,11.532549 19.3508418,11.532549 C18.6440404,11.532549 17.9415488,11.3986928 17.3985185,11.1163399 C16.8554882,10.8339869 2.28848485,3.23764706 1.23690236,2.6896732 C0.185319865,2.13960784 -0.81023569,-1.33226763e-14 1.1226936,-1.33226763e-14 L1.1226936,-1.33226763e-14 Z"></path>
                    </g>
                </g>
            </g>
        </g>
    </g>
</svg>