<?xml version="1.0" encoding="UTF-8"?>
<svg width="48px" height="48px" viewBox="0 0 48 48" version="1.1" xmlns="http://www.w3.org/2000/svg" xmlns:xlink="http://www.w3.org/1999/xlink">
    <title>social/pinterest</title>
    <g id="social/pinterest" stroke="none" stroke-width="1" fill="none" fill-rule="evenodd">
        <path d="M23.9605734,47.4831158 C10.7255659,47.4831158 0.000513283208,36.9205895 0.000513283208,23.8949053 C0.000513283208,10.869221 10.7255659,0.309221053 23.9605734,0.309221053 C37.1930146,0.309221053 47.9206336,10.869221 47.9206336,23.8949053 C47.9206336,36.9205895 37.1930146,47.4831158 23.9605734,47.4831158 Z M2.21738346,23.8951579 C2.21738346,32.9494737 7.94049123,40.6850527 16.0170025,43.8 C15.8270877,42.1098947 15.6577042,39.5153684 16.093995,37.6661053 C16.4866566,35.9987368 18.6398797,27.0429473 18.6398797,27.0429473 C18.6398797,27.0429473 17.9905765,25.7621053 17.9905765,23.8698947 C17.9905765,20.896421 19.7383058,18.6783158 21.9197594,18.6783158 C23.7701454,18.6783158 24.6658246,20.047579 24.6658246,21.6896842 C24.6658246,23.5237895 23.4801403,26.2648421 22.8667669,28.8063158 C22.3560502,30.936 23.9523609,32.6690527 26.0824862,32.6690527 C29.9423759,32.6690527 32.9091529,28.6623158 32.9091529,22.879579 C32.9091529,17.7612632 29.1750175,14.184 23.8394386,14.184 C17.6620752,14.184 14.0357294,18.7465263 14.0357294,23.4606316 C14.0357294,25.2972632 14.7517594,27.2677895 15.650005,28.3389473 C15.8270877,28.5511579 15.8527518,28.735579 15.8014235,28.9528421 C15.637173,29.6273684 15.2701754,31.08 15.1983158,31.375579 C15.1033584,31.7671579 14.8826466,31.8505263 14.4694536,31.663579 C11.7593183,30.4206316 10.0654837,26.5149473 10.0654837,23.3823158 C10.0654837,16.639579 15.0417644,10.4450527 24.4117494,10.4450527 C31.9441805,10.4450527 37.7981754,15.7301053 37.7981754,22.7911579 C37.7981754,30.1578947 33.0785363,36.0871579 26.531609,36.0871579 C24.3296241,36.0871579 22.2610927,34.960421 21.5527619,33.631579 C21.5527619,33.631579 20.4646015,37.711579 20.2002606,38.712 C19.7100752,40.5688421 18.3858045,42.895579 17.5029574,44.3153684 C19.5329925,44.9368421 21.6913484,45.2703158 23.9318296,45.2703158 C35.9246918,45.2703158 45.6462757,35.7006316 45.6462757,23.8951579 C45.6462757,12.0871579 35.9246918,2.52 23.9318296,2.52 C11.9389674,2.52 2.21738346,12.0871579 2.21738346,23.8951579 Z" id="Combined-Shape" fill="#000000"></path>
    </g>
</svg>