<?xml version="1.0" encoding="UTF-8"?>
<svg width="22px" height="20px" viewBox="0 0 22 20" version="1.1" xmlns="http://www.w3.org/2000/svg" xmlns:xlink="http://www.w3.org/1999/xlink">
    <title>recycle</title>
    <g id="Symbols" stroke="none" stroke-width="1" fill="none" fill-rule="evenodd">
        <g id="icon/recycle" transform="translate(-5.000000, -6.000000)" fill="#000000" fill-rule="nonzero">
            <g id="cycle-3" transform="translate(5.000000, 5.000000)">
                <g id="cycle-2">
                    <g id="cycle">
                        <path d="M5.51955556,16.1626667 C2.75488889,13.1902222 2.80377778,8.53111111 5.676,5.63811111 C6.85177778,4.45377778 8.32088889,3.74733333 9.84866667,3.51633333 L9.76433333,0.977777778 C7.61933333,1.23811111 5.54522222,2.19511111 3.90133333,3.85122222 C0.0525555556,7.72566667 0.00611111111,13.9822222 3.751,17.9446667 L1.62311111,20.086 L8.35755556,20.4538889 L8.33922222,13.3234444 L5.51955556,16.1626667 Z M13.6436667,1.54611111 L13.662,8.67655556 L16.4816667,5.83855556 C19.2463333,8.81344444 19.1974444,13.4725556 16.3252222,16.3631111 C15.1506667,17.5474444 13.6803333,18.2538889 12.1525556,18.4848889 L12.2368889,21.0222222 C14.3818889,20.7618889 16.456,19.8048889 18.1011111,18.15 C21.9486667,14.2731111 21.9951111,8.01655556 18.2502222,4.05655556 L20.3781111,1.91277778 L13.6436667,1.54611111 Z" id="recycle"></path>
                    </g>
                </g>
            </g>
        </g>
    </g>
</svg>