<?xml version="1.0" encoding="UTF-8"?>
<svg width="15px" height="22px" viewBox="0 0 15 22" version="1.1" xmlns="http://www.w3.org/2000/svg" xmlns:xlink="http://www.w3.org/1999/xlink">
    <title>share</title>
    <g id="Symbols" stroke="none" stroke-width="1" fill="none" fill-rule="evenodd">
        <g id="icon/share" transform="translate(-8.000000, -5.000000)" fill="#000000">
            <path d="M20,5 C21.6568542,5 23,6.34314575 23,8 C23,9.65685425 21.6568542,11 20,11 C19.5254055,11 19.0765506,10.8897953 18.6776298,10.6935804 L13.945346,15.4270296 C13.9812144,15.6124969 14,15.8040547 14,16 C14,16.2828776 13.9608482,16.5566107 13.8876679,16.8160763 L18.4831607,21.4111608 C18.9282049,21.1498396 19.446604,21 20,21 C21.6568542,21 23,22.3431458 23,24 C23,25.6568542 21.6568542,27 20,27 C18.3431458,27 17,25.6568542 17,24 C17,23.6066488 17.0757034,23.2309792 17.2133353,22.8867659 L12.7573135,18.4316985 C12.2634285,18.7892363 11.6563275,19 11,19 C9.34314575,19 8,17.6568542 8,16 C8,14.3431458 9.34314575,13 11,13 C11.7337497,13 12.4059742,13.263421 12.9272624,13.7008521 L17.3059205,9.32135501 C17.1100178,8.92268798 17,8.47419201 17,8 C17,6.34314575 18.3431458,5 20,5 Z" id="share"></path>
        </g>
    </g>
</svg>