<?xml version="1.0" encoding="UTF-8"?>
<svg width="48px" height="48px" viewBox="0 0 48 48" version="1.1" xmlns="http://www.w3.org/2000/svg" xmlns:xlink="http://www.w3.org/1999/xlink">
    <title>social/snapchat</title>
    <g id="social/snapchat" stroke="none" stroke-width="1" fill="none" fill-rule="evenodd">
        <path d="M0,24 C0,10.7451654 10.7451654,0 24,0 C37.2548346,0 48,10.7451654 48,24 C48,37.2548346 37.2548346,48 24,48 C10.7451654,48 0,37.2548346 0,24 Z M24.246144,12 L24.2450162,12 C24.2229237,12 24.2021582,12 24.1823877,12.0002646 C24.0247552,12.0018522 23.7656168,12.0043659 23.7423302,12.0046306 C23.1740303,12.0046306 22.0369662,12.0846731 20.8155792,12.6222151 C20.1172457,12.9293536 19.4891038,13.3446488 18.9486683,13.8565904 C18.3043386,14.4665676 17.7794275,15.2186369 17.3887959,16.0922254 C16.8167145,17.3713186 16.95252,19.5257864 17.061589,21.2571533 L17.061987,21.2598654 C17.0736635,21.4452863 17.0859371,21.6389099 17.0971492,21.8275722 C17.0132245,21.8660059 16.8771536,21.9065564 16.6765966,21.9065564 C16.353901,21.9065564 15.9701693,21.8036918 15.536348,21.6010055 C15.4087028,21.5417343 15.2630121,21.511768 15.1022614,21.511768 C14.8439855,21.511768 14.571711,21.5875769 14.3355276,21.7260306 C14.0383743,21.9000074 13.8463758,22.1458902 13.7942296,22.418498 C13.7598636,22.5988253 13.7615222,22.9552462 14.158589,23.3166946 C14.3769924,23.5156764 14.6978304,23.6991789 15.1119476,23.8623731 C15.2206185,23.9050404 15.3495906,23.9457894 15.4861922,23.9889858 C15.9602178,24.1392145 16.6776582,24.3661782 16.8647473,24.8052215 C16.9595524,25.0278192 16.918751,25.3207353 16.7438028,25.6747747 C16.7392251,25.6844328 16.7346474,25.6938923 16.7304678,25.703815 C16.6867473,25.8056212 16.2788664,26.7268382 15.4422063,27.6983961 C14.9667876,28.2508882 14.443137,28.7126213 13.8866463,29.071159 C13.2074198,29.5088794 12.4724646,29.7950481 11.7024137,29.9215286 C11.4000193,29.9710094 11.1840706,30.2396481 11.2009219,30.5449343 C11.2060967,30.632915 11.2267959,30.720631 11.2626878,30.8055026 C11.2629532,30.8060318 11.263285,30.806561 11.2635503,30.8070242 C11.3858217,31.0922006 11.6693082,31.334445 12.1301977,31.5481123 C12.6933891,31.8089453 13.5356883,32.0283677 14.633477,32.2000292 C14.6889403,32.3052091 14.7465266,32.569548 14.7863992,32.7505368 C14.8281294,32.9429035 14.8716508,33.1406946 14.9336822,33.3507898 C15.0006229,33.578415 15.1742442,33.8504274 15.6202727,33.8504274 C15.7893164,33.8504274 15.9837034,33.8124568 16.2088074,33.7689295 C16.5384691,33.7044324 16.9892744,33.6164518 17.551935,33.6164518 C17.863883,33.6164518 18.1871757,33.6438382 18.5125914,33.6977511 C19.1398708,33.8018726 19.680638,34.1827694 20.3063252,34.6238634 C21.2221332,35.2693636 22.258753,36 23.8425754,36 C23.8857652,36 23.9290876,35.9986108 23.9718793,35.9956341 C24.0242244,35.9980816 24.0891085,36 24.1575752,36 C25.741862,36 26.7782165,35.269099 27.6930294,34.624128 L27.6944889,34.622805 C28.3203087,34.1822402 28.8604789,33.8018726 29.4875593,33.6977511 C29.8128422,33.6439043 30.1360686,33.6164518 30.4481493,33.6164518 C30.9856657,33.6164518 31.4112603,33.6847856 31.7912768,33.7586761 C32.0392694,33.8073631 32.2319978,33.8307806 32.3798778,33.8307806 L32.3943408,33.8310451 L32.4093345,33.8310451 C32.7355463,33.8310451 32.975246,33.6525039 33.0667339,33.3400734 C33.1275047,33.1344103 33.1708934,32.9412498 33.2136851,32.7456416 C33.2509702,32.5760308 33.3105469,32.3041507 33.3660102,32.1978462 C34.4645286,32.025854 35.3064962,31.8068946 35.8697539,31.5461278 C36.3295819,31.3334528 36.6127366,31.0914729 36.7357378,30.8074872 C36.7726249,30.722351 36.7941866,30.6341058 36.7990297,30.5442729 C36.8163454,30.2395158 36.600065,29.9703478 36.2974715,29.920867 C32.8751334,29.3584523 31.3333728,25.8521914 31.2696166,25.7032196 C31.2655033,25.6934293 31.2608592,25.6837051 31.2560161,25.6742455 C31.0810678,25.3200738 31.0406646,25.0274885 31.135536,24.8044938 C31.3222271,24.3658474 32.0392031,24.1388838 32.5135604,23.9887213 C32.6508918,23.9455909 32.7803282,23.9045774 32.8881367,23.8621085 C33.3551298,23.678209 33.6889048,23.4786981 33.9090994,23.2521313 C34.1720858,22.9820373 34.223303,22.723255 34.2201186,22.5539088 C34.212091,22.1441703 33.8979537,21.7800759 33.3982532,21.6017993 C33.2294749,21.5322086 33.0370119,21.4954949 32.8410327,21.4954949 C32.7076156,21.4954949 32.5100442,21.5137525 32.3230214,21.600807 C31.9226373,21.7876171 31.5639834,21.8897541 31.2560825,21.9043073 C31.0923462,21.8960384 30.9775054,21.8606477 30.9031342,21.8268446 C30.9124886,21.6670241 30.9228382,21.5028376 30.9335195,21.3316391 L30.9379646,21.258344 C31.0476306,19.5258526 31.1839006,17.369731 30.6115537,16.0897116 C30.2192636,15.2130141 29.6924949,14.4590264 29.0455778,13.8477262 C28.5030192,13.3354538 27.8727543,12.9202248 27.1718998,12.6132847 C25.9522378,12.0797118 24.81524,12 24.246144,12 Z" id="Combined-Shape" fill="#000000"></path>
    </g>
</svg>