<?xml version="1.0" encoding="UTF-8"?>
<svg width="48px" height="48px" viewBox="0 0 48 48" version="1.1" xmlns="http://www.w3.org/2000/svg" xmlns:xlink="http://www.w3.org/1999/xlink">
    <title>social/vimeo</title>
    <g id="social/vimeo" stroke="none" stroke-width="1" fill="none" fill-rule="evenodd">
        <path d="M0,24 C0,10.7451654 10.7451654,0 24,0 C37.2548346,0 48,10.7451654 48,24 C48,37.2548346 37.2548346,48 24,48 C10.7451654,48 0,37.2548346 0,24 Z M37.585997,19.3620066 C37.7570339,15.6108202 36.3611741,13.6918866 33.4020708,13.6052058 C29.4107686,13.476679 26.7067261,15.7280551 25.2909397,20.3633194 C26.0222466,20.0498072 26.7332949,19.8910584 27.422756,19.8910584 C28.8873626,19.8910584 29.5336494,20.7146921 29.3612842,22.357642 C29.2742712,23.3533089 28.6279845,24.8019742 27.422756,26.7056308 C26.2152028,28.6106158 25.3092057,29.5624441 24.7070897,29.5624441 C23.9309478,29.5624441 23.2198994,28.0961768 22.5729485,25.1606534 C22.3557483,24.2994913 21.9681755,22.0992602 21.4085696,18.5609565 C20.8908096,15.2820309 19.5112231,13.750338 17.2708067,13.9658776 C16.3222995,14.0525584 14.8982103,14.9143847 13.0025244,16.5516888 C11.6232702,17.8020843 10.2214323,19.0508192 8.8,20.2992221 L10.154346,22.0441298 C11.445259,21.1414539 12.1991494,20.6881233 12.4146891,20.6881233 C13.4037138,20.6881233 14.3276447,22.2387465 15.1898032,25.3366719 C15.9649488,28.177876 16.739098,31.0187479 17.5139114,33.859952 C18.6746372,36.959538 20.0950731,38.5081686 21.7745552,38.5081686 C24.4835794,38.5081686 27.7967122,35.9632069 31.7122934,30.8756084 C35.5000119,26.0032174 37.4578025,22.1653502 37.585997,19.3620066 Z" id="Combined-Shape" fill="#000000"></path>
    </g>
</svg>